Coordinates
version=1
nRows=8
nColumns=63
inDegrees=yes

Units are S.I. units (second, meters, Newtons, ...)
If the header above contains a line with 'inDegrees', this indicates whether rotational values are in degrees (yes) or radians (no).

endheader
time	pelvis_tilt	pelvis_list	pelvis_rotation	pelvis_tx	pelvis_ty	pelvis_tz	hip_flexion_r	hip_adduction_r	hip_rotation_r	knee_angle_r	knee_angle_r_beta	ankle_angle_r	subtalar_angle_r	mtp_angle_r	hip_flexion_l	hip_adduction_l	hip_rotation_l	knee_angle_l	knee_angle_l_beta	ankle_angle_l	subtalar_angle_l	mtp_angle_l	L5_S1_Flex_Ext	L5_S1_Lat_Bending	L5_S1_axial_rotation	L4_L5_Flex_Ext	L4_L5_Lat_Bending	L4_L5_axial_rotation	L3_L4_Flex_Ext	L3_L4_Lat_Bending	L3_L4_axial_rotation	L2_L3_Flex_Ext	L2_L3_Lat_Bending	L2_L3_axial_rotation	L1_L2_Flex_Ext	L1_L2_Lat_Bending	L1_L2_axial_rotation	L1_T12_Flex_Ext	L1_T12_Lat_Bending	L1_T12_axial_rotation	Abs_r3	Abs_r2	Abs_r1	Abs_t1	Abs_t2	neck_flexion	neck_bending	neck_rotation	arm_flex_r	arm_add_r	arm_rot_r	elbow_flex_r	pro_sup_r	wrist_flex_r	wrist_dev_r	arm_flex_l	arm_add_l	arm_rot_l	elbow_flex_l	pro_sup_l	wrist_flex_l	wrist_dev_l
0.000000	1.207008	-2.616917	96.906456	0.188070	0.975688	0.204243	5.979810	-0.852242	-23.860042	14.572632	0.254340	27.428397	17.783611	0.000000	3.711384	0.554917	1.151486	7.677977	0.134006	21.748481	-4.350850	0.000000	0.266590	0.034750	-0.942633	0.495084	0.046217	-1.001547	0.437980	0.084490	-1.001547	0.304686	0.084490	-0.824804	0.247555	0.070861	-0.765889	0.152329	0.053827	-0.706975	1.904225	0.393095	-5.242641	0.000000	0.000000	22.158603	6.297288	-7.114434	24.122114	-20.414974	58.770166	64.784730	82.156964	-11.779896	-1.804233	30.132661	-6.469306	61.420608	55.172329	87.487520	-7.747654	0.851128
0.017544	1.196434	-2.517486	96.463420	0.188322	0.975690	0.203416	5.772986	-0.781834	-23.230003	14.669898	0.256038	27.156196	17.726966	0.000000	3.537707	0.499747	0.098677	7.675717	0.133967	21.905611	-3.768196	0.000000	0.263906	0.044395	-0.860522	0.490101	0.059045	-0.914305	0.433572	0.107942	-0.914305	0.301619	0.107942	-0.752957	0.245064	0.090530	-0.699174	0.150796	0.068768	-0.645392	1.885058	0.502203	-4.785966	0.000000	0.000000	22.008012	6.200527	-6.836328	23.831004	-20.567163	58.865000	65.481706	76.245871	-11.767614	-1.100759	29.607727	-6.551751	60.833714	55.386335	84.249701	-8.668930	0.591402
0.035088	1.175128	-2.429257	96.097531	0.188522	0.975716	0.202655	5.582298	-0.731168	-22.689854	14.730550	0.257097	26.930033	17.685577	0.000000	3.370523	0.467139	-0.778858	7.657091	0.133641	22.031302	-3.256266	0.000000	0.261845	0.051885	-0.794105	0.486272	0.069008	-0.843736	0.430184	0.126154	-0.843736	0.299262	0.126154	-0.694842	0.243149	0.105805	-0.645210	0.149618	0.080371	-0.595579	1.870330	0.586938	-4.416572	0.000000	0.000000	21.874265	6.108981	-6.550993	23.616560	-20.660243	59.094428	66.073991	70.126334	-11.820991	-0.800067	29.202619	-6.606873	60.431241	55.537911	81.478561	-9.472477	0.374943
0.052632	1.145562	-2.351132	95.806125	0.188671	0.975763	0.201961	5.406519	-0.697007	-22.234915	14.757369	0.257565	26.746842	17.657852	0.000000	3.211331	0.453426	-1.492832	7.626110	0.133101	22.129044	-2.810314	0.000000	0.260318	0.057483	-0.742338	0.483436	0.076453	-0.788734	0.427676	0.139765	-0.788734	0.297517	0.139765	-0.649546	0.241731	0.117220	-0.603150	0.148746	0.089041	-0.556754	1.859423	0.650261	-4.128662	0.000000	0.000000	21.755843	6.022242	-6.264639	23.467958	-20.703508	59.435760	66.573050	63.898233	-11.930560	-0.860765	28.906577	-6.640235	60.195736	55.638811	79.148761	-10.169114	0.194783
0.070175	1.110209	-2.282016	95.586535	0.188771	0.975825	0.201331	5.244424	-0.676114	-21.860506	14.753141	0.257491	26.603558	17.642201	0.000000	3.061629	0.454942	-2.054956	7.586785	0.132414	22.202329	-2.425594	0.000000	0.259239	0.061450	-0.704180	0.481434	0.081728	-0.748191	0.425904	0.149409	-0.748191	0.296285	0.149409	-0.616157	0.240730	0.125308	-0.572146	0.148129	0.095186	-0.528135	1.851721	0.695131	-3.916435	0.000000	0.000000	21.651230	5.939902	-5.983476	23.374374	-20.706254	59.866307	66.990346	57.661450	-12.086851	-1.241456	28.708837	-6.657398	60.109743	55.700788	77.234964	-10.769659	0.043952
0.087719	1.071540	-2.220810	95.436095	0.188823	0.975900	0.200765	5.094788	-0.665250	-21.561949	14.720648	0.256924	26.497114	17.637031	0.000000	2.922914	0.468020	-2.476944	7.543126	0.131652	22.254646	-2.097361	0.000000	0.258523	0.064047	-0.678587	0.480104	0.085182	-0.720998	0.424728	0.155723	-0.720998	0.295466	0.155723	-0.593763	0.240065	0.130604	-0.551352	0.147720	0.099208	-0.508940	1.846607	0.724509	-3.774095	0.000000	0.000000	21.558906	5.861554	-5.713715	23.324983	-20.677777	60.363381	67.337343	51.515865	-12.280397	-1.900746	28.598641	-6.663923	60.155808	55.735594	75.711832	-11.284931	-0.084518
0.105263	1.032026	-2.166419	95.352140	0.188828	0.975983	0.200260	4.956384	-0.661178	-21.334564	14.662674	0.255912	26.424445	17.640750	0.000000	2.796685	0.488995	-2.770507	7.499145	0.130885	22.289485	-1.820868	0.000000	0.258083	0.065536	-0.664517	0.479286	0.087163	-0.706049	0.424005	0.159344	-0.706049	0.294963	0.159344	-0.581452	0.239656	0.133641	-0.539920	0.147469	0.101515	-0.498388	1.843462	0.741356	-3.695843	0.000000	0.000000	21.477353	5.786789	-5.461564	23.308962	-20.627371	60.904291	67.625507	45.561360	-12.501729	-2.797242	28.565225	-6.665375	60.316475	55.754981	74.554027	-11.725748	-0.197597
0.122807	0.994141	-2.117746	95.332004	0.188786	0.976069	0.199816	4.827988	-0.660660	-21.173672	14.582004	0.254504	26.382486	17.651768	0.000000	2.684439	0.514198	-2.947357	7.458852	0.130182	22.310338	-1.591370	0.000000	0.257832	0.066179	-0.660927	0.478820	0.088018	-0.702235	0.423593	0.160908	-0.702235	0.294676	0.160908	-0.578311	0.239423	0.134953	-0.537003	0.147325	0.102512	-0.495695	1.841670	0.748633	-3.675879	0.000000	0.000000	21.405054	5.715201	-5.233234	23.315486	-20.564331	61.466350	67.866301	39.897816	-12.741380	-3.889548	28.597829	-6.667313	60.574290	55.770704	73.736211	-12.102930	-0.302254
